<svg xmlns="http://www.w3.org/2000/svg" width="30.7" height="24.7" data-name="Layer 1">
  <rect width="30.7" height="24.7" rx="3.3" ry="3.3" style="fill:#FFECB3"/>
  <path d="M28.4 24.7h-26c-1.3 0-2.4-1-2.4-2.3v-20C0 1 1 0 2.4 0h26q2.1.2 2.3 2.4v20q-.2 2.1-2.3 2.3m-6.7-.7h6.7q1.5-.1 1.6-1.6v-3.7h-8.3zm-12 0H21V6.4q0-.4.4-.4H30V2.4Q29.9.8 28.4.7H9.7zm-9-5.3v3.7Q1 23.9 2.4 24H9v-5.3zm21-.7H30v-5.3h-8.3zm-21 0H9v-5.3H.7zm21-6H30V6.7h-8.3zm-21 0H9V6.7H.7zm0-6H9V.7H2.4Q.8 1 .7 2.4z" style="fill:#555"/>
</svg>
