<svg xmlns="http://www.w3.org/2000/svg" width="1676" height="1706.67" viewBox="0 0 1257 1280" fill="#BBDEFB">
  <path d="M748.4 1.1c-6.7 1.9-12.3 12.1-10.9 19.8 1.5 8.1 6.1 13.5 12.5 14.8l3 .6-.2 212-.3 212.1-4.7-.3-4.8-.3V493h-39l-.2-16.3-.3-16.2-5.5-.1-5.5-.1-.3-112.8c-.2-111.4-.2-112.7 1.8-115.2 2.7-3.5 4.3-9.9 3.5-14.2-1-5.7-5-11.6-9.1-13.6-4.9-2.3-14.8-1.7-18.6 1-6.5 4.8-9 15.4-5.5 23.6 2 5 7.6 9 13.2 9.7l4.5.5-.2 110.4-.3 110.5-8.5.2-8.5.1-.3 16.2-.2 16.3h-38.9v-32.5h-16.6l-.5-72-.5-72-54.2-.3-54.3-.2V165l2.8-4.2c2.3-3.6 2.7-5.2 2.7-11.3 0-6.3-.3-7.6-2.8-10.8-3.8-5-7.5-6.7-14.5-6.7-4.5 0-6.7.6-9.3 2.3-6.7 4.4-9.8 15.3-6.5 23 1.7 4.1 7.6 9.3 11.5 10.2l3.1.7V326h111v134.5h-10.5l-.3 16.2-.2 16.3h-39l-.2-16.3-.3-16.2H537V377H410.3l-2.4-2.6c-3.7-4-7.3-5.4-13.7-5.4-4.5 0-6.7.5-9.3 2.3-11 7.4-10.4 25.3 1.1 31.4 10.9 5.8 23.8-.3 25.7-12.2l.6-3.5H523l-.2 36.6-.3 36.7-7 .1-7 .1-.3 16.2-.2 16.3h-39l-.2-16.3-.3-16.2h-3l-3-.1-.3-18.2-.2-18.2H243.5l-5-2.6c-12.3-6.3-25.5 1.9-25.5 15.9 0 6.2 1.9 10.5 6.3 14.4 9.3 8.2 24.6 3.2 27.9-9.1l1.2-4.6h200.7l-.3 11.1-.3 11.1-9.5.1-9.5.2-.3 16.2-.2 16.3h-48v69h-33v8H140.3l-3.3-4.1c-9.4-11.7-27.2-8.1-31 6.3-2.1 7.7 1 15.9 7.9 20.5 2.6 1.7 4.8 2.3 9.1 2.3 6.7 0 11.1-2.5 14.9-8.3l2.4-3.7H348v18h33v39h-33v14H26V468l2.5-1.6c4.1-2.7 6.8-9.6 6.3-16.5-.5-6.2-2.3-9.7-6.9-13.2-5.6-4.1-15.2-4.1-20.8 0-5.8 4.2-8.5 13.9-6 21.4 1.3 3.8 6.3 9.6 9.1 10.5 1.7.5 1.8 5.1 2 99.7l.3 99.2 167.7.3 167.8.2v12h33v39h-32.9l-.3 4.7-.3 4.8-103.7.3-103.6.2-3.1 3.9-3.1 3.9v148l-3.5.6c-11 2.1-16.8 18-10.1 27.8 3.5 5.1 7 7.1 13.4 7.6 10 .7 15.8-3.5 18.4-13.3 1.3-5 0-12.5-2.8-15.6-1.2-1.3-1.4-12.5-1.4-75.3 0-48.9-.3-74.4-1-75.7-1.1-1.9.4-1.9 100-1.9h101v19h33v57h60v33h8v77.9c0 77.2 0 77.9-2.1 80.5l-2 2.6h-65.7l-65.7-.1-2-3.1c-3-4.8-7.8-7.1-14.5-7.1-10.4 0-17.3 7.1-17.4 17.8-.1 19.7 24.9 25.5 33.4 7.8l2.5-5.3h134.7l5.9-5.1 5.9-5.1V848h18v-33h39v16.1c0 15.2.1 16.1 2 16.6 2 .5 2 1.4 2 181.8v181.4l-2.6 2c-2.6 2.1-3.6 2.1-55 2.1-33 0-52.4-.4-52.4-1 0-1.8-6.5-8.3-9.7-9.6-8-3.4-17.8-.2-22.1 7.1-3.3 5.8-2.8 15.7 1.1 20.9 4.1 5.3 7.8 6.9 15.1 6.4 7.4-.4 11.6-3 14.3-8.8l1.8-3.9 54.1-.1h54.1l7.4-5.3 7.4-5.3.3-183.7.2-183.6 10.8-.3 10.7-.3.3-16.3.2-16.2h39v33h10v303.9l-4.2 1.2c-11 2.9-15.4 16.1-9.4 27.7 3.2 6.2 11.7 9.3 19.7 7.2 11.6-3.1 16.3-18.6 8.8-29.1-1.8-2.6-1.9-7.1-1.9-156.8V848h16v-33h39v33h16v199.5c0 196.1 0 199.4-1.9 200.5-1.3.6-24.1 1-67.1 1-64.7 0-65.1 0-67.9-2.1-7.8-5.7-19.4-3.7-25.5 4.4-3.2 4.3-3.4 15-.4 20.2 4.1 7.1 14.3 10.4 22.1 7.1 4.4-1.8 9.5-7.8 10.3-12.1l.6-3.5h130.1l6.8-5.6 6.9-5.6V848h9v-33h39l.2 16.3.3 16.2h39l.3-16.3.2-16.2h39v33h39v-33h39l.2 16.2.3 16.3 19.2.3 19.3.2.2-16.2.3-16.3 39.3-.3 39.2-.2v-98h32v-12h132v154l-3.9 2.4c-7.7 4.9-10.3 16.1-5.8 24.7 5.8 10.9 21.8 12.2 29.3 2.3 2.6-3.4 2.9-4.5 2.9-11.4s-.3-8-2.9-11.4c-1.6-2.1-4.4-4.4-6.2-5.2l-3.4-1.4-.2-83.8-.3-83.7-70.7-.3-70.8-.2v-13.5l-16 .3-16 .3V638h31.9l.3-8.8.3-8.7 80.1-.3 80.1-.2 1.8 4.1c6.1 13.4 25.4 13 31.6-.6 6.5-14.3-5.2-29.1-20.1-25.5-4.4 1.1-11 5.9-11 8.1 0 .5-34.4.8-81.2.7l-81.3-.3-.3-3.8-.3-3.7H1029V493h-90l-.2-16.3c-.2-12.3-.6-16.1-1.5-16-1 .2-1.3-18.4-1.3-90.7v-91h179.9l1.9 4.3c2.8 6.3 7.2 9.1 15.2 9.5 5.5.3 7 0 9.9-2 6.2-4.2 7.6-7 7.6-15.6 0-9-2.1-12.9-8.5-16.2-7-3.6-14.9-2.4-20.5 3.1l-3.1 2.9-96.4.2-96.5.3-.3 97.5-.2 97.5-12.5-.3-12.5-.3V493h-39.5v-32.5l-4.5-.1-4.5-.1-.3-158.1L851 144l72.7-.2 72.7-.3-.3-44.6-.3-44.6 3.4-2.4c4.6-3.3 6.5-5.8 7.8-10.6 3.1-10.9-4-22-14.8-23.1-6.5-.6-11.4 1.1-15.1 5.3-7.9 9-5.6 23.3 4.6 28.7l4.3 2.3v79.7l-74-.3-74-.2-.3 163.2-.2 163.3-8 .1-8 .2-.3 16.2-.2 16.3h-39l-.2-16.3-.3-16.2-7.3-.1-7.2-.2V246.5c0-212 0-213.7 2-216.5 3.1-4.4 4.4-11.7 3.1-16.8-2.8-10.3-12.6-15.3-23.7-12.1"/>
  <path d="M767 850.2c0 .2-.1 62.1-.3 137.7l-.2 137.4-4.4 1.3c-8 2.3-12.3 8.3-12.4 17.3 0 7.7 3.2 13.4 9.5 16.7 3.9 2 12.2 1.8 16.7-.6 9.8-4.9 12-20.6 4.1-28.7l-3-3.1-.2-138.8-.3-138.9-4.7-.3c-2.7-.2-4.8-.2-4.8 0M851 1002.5V1155h87.3l87.2.1 2 4.1c3.1 6.5 6.3 8.3 15 8.3 5.9 0 7.9-.4 10.2-2.1 10.4-7.7 9.5-25.5-1.7-31.2-2.5-1.2-6.2-2.2-8.5-2.2-5.1.1-11.9 3.1-14 6.4l-1.7 2.6H865l-.2-145.3-.3-145.2-6.7-.3-6.8-.3z"/>
  <path d="M925.5 851.2c-.3.7-.4 49.5-.3 108.3l.3 107 93.2.5 93.3.5 2.2 4.5c3.3 6.5 7.6 9 15.3 9 6.8 0 11-2.1 14.9-7.3 3.2-4.3 3.4-15 .4-20.2-4.1-7.1-14.3-10.4-22.1-7.1-3.2 1.3-9.7 7.8-9.7 9.6 0 .6-32.3 1-88.5 1H936l-.2-103.3-.3-103.2-4.8-.3c-3.2-.2-4.9.1-5.2 1"/>
</svg>
